<?xml version="1.0" standalone="no"?>
<!DOCTYPE svg PUBLIC "-//W3C//DTD SVG 20010904//EN"
 "http://www.w3.org/TR/2001/REC-SVG-20010904/DTD/svg10.dtd">
<svg version="1.0" xmlns="http://www.w3.org/2000/svg"
 width="170.000000pt" height="30.000000pt" viewBox="0 0 170.000000 30.000000"
 preserveAspectRatio="xMidYMid meet">

<g transform="translate(0.000000,30.000000) scale(0.100000,-0.100000)"
fill="#000000" stroke="none">
<path d="M280 251 c-14 -28 -13 -31 15 -31 24 0 25 -2 25 -70 0 -68 1 -70 25
-70 25 0 25 0 25 95 l0 95 -40 0 c-29 0 -42 -5 -50 -19z"/>
<path d="M395 248 c-15 -22 -14 -23 11 -28 27 -5 27 -6 25 -72 l-2 -68 30 0
c30 0 31 1 31 49 0 26 -3 69 -6 95 -6 44 -8 46 -40 46 -23 0 -38 -7 -49 -22z"/>
<path d="M500 245 c0 -25 1 -25 80 -25 79 0 80 0 80 25 0 25 -1 25 -80 25 -79
0 -80 0 -80 -25z"/>
<path d="M677 263 c-3 -5 -5 -47 -6 -95 -2 -88 -2 -88 24 -88 18 0 25 5 25 20
0 11 6 20 14 20 8 0 18 9 21 20 11 35 25 22 21 -20 -3 -36 -1 -40 20 -40 20 0
24 5 25 33 4 125 -15 157 -92 157 -26 0 -50 -3 -52 -7z m98 -68 c0 -14 -8 -21
-27 -23 -22 -3 -28 1 -28 16 0 25 10 33 35 30 12 -2 20 -10 20 -23z"/>
<path d="M840 217 c0 -50 2 -53 33 -67 l32 -13 -32 -4 c-27 -4 -33 -9 -33 -29
0 -23 3 -24 65 -24 65 0 65 0 65 28 0 29 -29 63 -63 76 -30 10 -14 31 26 34
32 3 37 7 37 28 0 23 -3 24 -65 24 l-65 0 0 -53z"/>
<path d="M990 175 c0 -95 0 -95 25 -95 18 0 25 5 25 20 0 11 7 20 15 20 8 0
15 4 15 9 0 5 3 16 6 25 4 12 0 16 -15 16 -16 0 -21 6 -21 25 0 20 5 25 25 25
27 0 29 -11 25 -102 -1 -35 1 -38 24 -38 26 0 26 1 26 73 0 94 -19 117 -98
117 l-52 0 0 -95z"/>
<path d="M222 237 c-18 -19 -22 -35 -22 -90 0 -66 0 -67 28 -67 l27 0 0 90 c0
50 -3 90 -6 90 -3 0 -15 -10 -27 -23z"/>
<path d="M573 183 c-18 -12 -23 -25 -23 -59 0 -41 2 -44 28 -44 26 0 27 1 27
60 0 33 -2 60 -5 59 -3 0 -15 -7 -27 -16z"/>
</g>
</svg>
